<svg xmlns="http://www.w3.org/2000/svg" xmlns:xlink="http://www.w3.org/1999/xlink" width="1280" height="1920" viewBox="0 0 1280 1920"><rect fill="#f7f5f2" width="1280" height="1920"/>  <defs>    <pattern id="pat-wood" width="64" height="64" patternUnits="userSpaceOnUse">      <rect width="64" height="64" fill="#c9a876"/>      <rect y="0"  width="64" height="1.5" fill="#b8925f" opacity="0.5"/>      <rect y="16" width="64" height="1.5" fill="#b8925f" opacity="0.5"/>      <rect y="32" width="64" height="1.5" fill="#b8925f" opacity="0.5"/>      <rect y="48" width="64" height="1.5" fill="#b8925f" opacity="0.5"/>      <rect x="20" width="1" height="16" fill="#a9814e" opacity="0.4"/>      <rect x="44" y="16" width="1" height="16" fill="#a9814e" opacity="0.4"/>      <rect x="8"  y="32" width="1" height="16" fill="#a9814e" opacity="0.4"/>      <rect x="36" y="48" width="1" height="16" fill="#a9814e" opacity="0.4"/>    </pattern>    <pattern id="pat-tile" width="40" height="40" patternUnits="userSpaceOnUse">      <rect width="40" height="40" fill="#dfeaec"/>      <rect width="40" height="40" fill="none" stroke="#c3d6d9" stroke-width="1.5"/>    </pattern>    <pattern id="pat-stone" width="1" height="1" patternUnits="objectBoundingBox">      <rect width="1" height="1" fill="#c7c0b1"/>    </pattern>    <pattern id="pat-kitchen" width="40" height="40" patternUnits="userSpaceOnUse">      <rect width="40" height="40" fill="#ddd6c8"/>      <rect width="40" height="40" fill="none" stroke="#cbc2ae" stroke-width="1.5"/>    </pattern>    <filter id="soft-shadow" x="-20%" y="-20%" width="140%" height="140%">      <feDropShadow dx="0" dy="2" stdDeviation="2" flood-color="#000" flood-opacity="0.18"/>    </filter>  </defs><g id="floor-fills"><rect id="flr-bedroom" class="mat-wood" x="39" y="519" width="525" height="174" fill="url(#pat-wood)"/><rect id="flr-bath1" class="mat-tile" x="646" y="381" width="184" height="234" fill="url(#pat-tile)"/><rect id="flr-storage" class="mat-stone" x="870" y="484" width="198" height="346" fill="url(#pat-stone)"/><rect id="flr-playroom" class="mat-wood" x="125" y="693" width="343" height="192" fill="url(#pat-wood)"/><rect id="flr-hall" class="mat-wood" x="506" y="662" width="127" height="132" fill="url(#pat-wood)"/><rect id="flr-bath2" class="mat-tile" x="660" y="647" width="206" height="132" fill="url(#pat-tile)"/><rect id="flr-living" class="mat-wood" x="140" y="900" width="779" height="560" fill="url(#pat-wood)"/><rect id="flr-kitchen" class="mat-kitchen" x="919" y="1107" width="226" height="437" fill="url(#pat-kitchen)"/><ellipse cx="900" cy="1360" rx="95" ry="62" fill="#cabfa9" opacity="0.55"/></g><g id="walls" fill="none" stroke="#3a3a3a" stroke-width="7" stroke-linejoin="miter"><rect x="39" y="519" width="525" height="174"/><rect x="646" y="381" width="184" height="234"/><rect x="870" y="484" width="198" height="346"/><rect x="125" y="693" width="343" height="192"/><rect x="506" y="662" width="127" height="132"/><rect x="660" y="647" width="206" height="132"/><rect x="140" y="900" width="779" height="560"/><rect x="919" y="1107" width="226" height="437"/></g><g id="furniture"><rect x="60" y="545" width="190" height="150" rx="10" fill="#fbf9f5" stroke="#9c9184" stroke-width="2" filter="url(#soft-shadow)"/><rect x="75" y="553" width="60" height="40" rx="8" fill="#fff" stroke="#9c9184" stroke-width="2" /><rect x="145" y="553" width="60" height="40" rx="8" fill="#fff" stroke="#9c9184" stroke-width="2" /><rect x="60" y="660" width="190" height="35" rx="6" fill="#efe6d3" stroke="#9c9184" stroke-width="2" /><rect x="260" y="545" width="26" height="55" rx="5" fill="#fbf9f5" stroke="#9c9184" stroke-width="2" /><rect x="470" y="535" width="80" height="90" rx="6" fill="#fbf9f5" stroke="#9c9184" stroke-width="2" filter="url(#soft-shadow)"/><line x1="510" y1="535" x2="510" y2="625" stroke="#9c9184" stroke-width="2"/><rect x="662" y="395" width="150" height="72" rx="20" fill="#fbf9f5" stroke="#9c9184" stroke-width="2" filter="url(#soft-shadow)"/><rect x="662" y="395" width="150" height="72" rx="20" fill="none" stroke="#c3d6d9" stroke-width="6" /><rect x="672" y="540" width="55" height="30" rx="8" fill="#fbf9f5" stroke="#9c9184" stroke-width="2" /><circle cx="699" cy="552" r="10" fill="#dfeaec" stroke="#9c9184" stroke-width="2"/><rect x="892" y="505" width="150" height="8" rx="2" fill="#b8ad9c" stroke="#8a7f6d" stroke-width="1"/><rect x="900" y="471" width="34" height="34" rx="3" fill="#efe7d8" stroke="#9c9184" stroke-width="2" /><rect x="950" y="471" width="34" height="34" rx="3" fill="#efe7d8" stroke="#9c9184" stroke-width="2" /><rect x="1000" y="471" width="34" height="34" rx="3" fill="#efe7d8" stroke="#9c9184" stroke-width="2" /><rect x="892" y="560" width="150" height="8" rx="2" fill="#b8ad9c" stroke="#8a7f6d" stroke-width="1"/><rect x="900" y="526" width="34" height="34" rx="3" fill="#efe7d8" stroke="#9c9184" stroke-width="2" /><rect x="950" y="526" width="34" height="34" rx="3" fill="#efe7d8" stroke="#9c9184" stroke-width="2" /><rect x="1000" y="526" width="34" height="34" rx="3" fill="#efe7d8" stroke="#9c9184" stroke-width="2" /><rect x="892" y="615" width="150" height="8" rx="2" fill="#b8ad9c" stroke="#8a7f6d" stroke-width="1"/><rect x="900" y="581" width="34" height="34" rx="3" fill="#efe7d8" stroke="#9c9184" stroke-width="2" /><rect x="950" y="581" width="34" height="34" rx="3" fill="#efe7d8" stroke="#9c9184" stroke-width="2" /><rect x="1000" y="581" width="34" height="34" rx="3" fill="#efe7d8" stroke="#9c9184" stroke-width="2" /><rect x="892" y="670" width="150" height="8" rx="2" fill="#b8ad9c" stroke="#8a7f6d" stroke-width="1"/><rect x="900" y="636" width="34" height="34" rx="3" fill="#efe7d8" stroke="#9c9184" stroke-width="2" /><rect x="950" y="636" width="34" height="34" rx="3" fill="#efe7d8" stroke="#9c9184" stroke-width="2" /><rect x="1000" y="636" width="34" height="34" rx="3" fill="#efe7d8" stroke="#9c9184" stroke-width="2" /><rect x="150" y="730" width="290" height="120" rx="16" fill="#f3e6c9" stroke="#e0cd9e" stroke-width="3" /><circle cx="210" cy="790" r="26" fill="#f6c99a" stroke="#9c9184" stroke-width="2"/><circle cx="270" cy="815" r="20" fill="#a8d8c9" stroke="#9c9184" stroke-width="2"/><rect x="370" y="705" width="80" height="26" rx="4" fill="#efe7d8" stroke="#9c9184" stroke-width="2" /><rect x="516" y="672" width="90" height="22" rx="4" fill="#fbf9f5" stroke="#9c9184" stroke-width="2" /><rect x="672" y="660" width="40" height="50" rx="10" fill="#fbf9f5" stroke="#9c9184" stroke-width="2" filter="url(#soft-shadow)"/><ellipse cx="692" cy="718" rx="26" ry="14" fill="#fbf9f5" stroke="#9c9184" stroke-width="2"/><rect x="790" y="660" width="50" height="32" rx="6" fill="#fbf9f5" stroke="#9c9184" stroke-width="2" /><circle cx="815" cy="676" r="9" fill="#dfeaec" stroke="#9c9184" stroke-width="2"/><rect x="610" y="940" width="140" height="26" rx="4" fill="#fbf9f5" stroke="#9c9184" stroke-width="2" filter="url(#soft-shadow)"/><rect x="830" y="1220" width="120" height="32" rx="6" fill="#fbf9f5" stroke="#9c9184" stroke-width="2" /><rect x="170" y="1180" width="260" height="90" rx="14" fill="#fbf9f5" stroke="#9c9184" stroke-width="2" filter="url(#soft-shadow)"/><rect x="170" y="1160" width="260" height="40" rx="12" fill="#f2ede2" stroke="#9c9184" stroke-width="2" /><rect x="190" y="1300" width="140" height="60" rx="10" fill="#fbf9f5" stroke="#9c9184" stroke-width="2" /><rect x="150" y="1150" width="26" height="150" rx="6" fill="#fbf9f5" stroke="#9c9184" stroke-width="2" /><ellipse cx="760" cy="1150" rx="90" ry="55" fill="#fbf9f5" stroke="#9c9184" stroke-width="2"/><circle cx="700" cy="1090" r="18" fill="#fbf9f5" stroke="#9c9184" stroke-width="2"/><circle cx="820" cy="1090" r="18" fill="#fbf9f5" stroke="#9c9184" stroke-width="2"/><circle cx="700" cy="1210" r="18" fill="#fbf9f5" stroke="#9c9184" stroke-width="2"/><circle cx="820" cy="1210" r="18" fill="#fbf9f5" stroke="#9c9184" stroke-width="2"/><rect x="430" y="905" width="160" height="22" rx="4" fill="#fbf9f5" stroke="#9c9184" stroke-width="2" /><rect x="935" y="1120" width="190" height="45" rx="4" fill="#eee7d8" stroke="#9c9184" stroke-width="2" filter="url(#soft-shadow)"/><rect x="935" y="1470" width="190" height="45" rx="4" fill="#eee7d8" stroke="#9c9184" stroke-width="2" filter="url(#soft-shadow)"/><rect x="935" y="1300" width="60" height="80" rx="6" fill="#e7e2d6" stroke="#9c9184" stroke-width="2" /><rect x="1060" y="1250" width="80" height="60" rx="6" fill="#fbf9f5" stroke="#9c9184" stroke-width="2" /></g><g id="room-labels" font-family="Roboto, sans-serif" pointer-events="none"><rect x="54" y="529" width="100" height="22" rx="5" fill="#faf8f4" opacity="0.82"/><text x="60" y="545" font-size="15" font-weight="600" letter-spacing="0.3" fill="#4a4335">Bedroom</text><rect x="656" y="389" width="92" height="22" rx="5" fill="#faf8f4" opacity="0.82"/><text x="662" y="405" font-size="15" font-weight="600" letter-spacing="0.3" fill="#4a4335">Bathroom</text><rect x="880" y="486" width="78" height="22" rx="5" fill="#faf8f4" opacity="0.82"/><text x="886" y="502" font-size="15" font-weight="600" letter-spacing="0.3" fill="#4a4335">Storage</text><rect x="135" y="701" width="92" height="22" rx="5" fill="#faf8f4" opacity="0.82"/><text x="141" y="717" font-size="15" font-weight="600" letter-spacing="0.3" fill="#4a4335">Playroom</text><rect x="510" y="742" width="46" height="22" rx="5" fill="#faf8f4" opacity="0.82"/><text x="516" y="758" font-size="15" font-weight="600" letter-spacing="0.3" fill="#4a4335">Hall</text><rect x="670" y="655" width="92" height="22" rx="5" fill="#faf8f4" opacity="0.82"/><text x="676" y="671" font-size="15" font-weight="600" letter-spacing="0.3" fill="#4a4335">Bathroom</text><rect x="150" y="908" width="108" height="22" rx="5" fill="#faf8f4" opacity="0.82"/><text x="156" y="924" font-size="15" font-weight="600" letter-spacing="0.3" fill="#4a4335">Living Room</text><rect x="934" y="1182" width="66" height="22" rx="5" fill="#faf8f4" opacity="0.82"/><text x="940" y="1198" font-size="15" font-weight="600" letter-spacing="0.3" fill="#4a4335">Kitchen</text><rect x="800" y="1284" width="76" height="20" rx="5" fill="#faf8f4" opacity="0.82"/><text x="806" y="1298" font-size="13" font-weight="500" fill="#4a4335">Entrance</text></g><g id="floorplan-overlays"><rect id="room-living" x="140" y="900" width="820" height="560" rx="6" class="room room-off" fill-opacity="0.35" stroke-width="2"/><rect id="room-kitchen" x="919" y="1107" width="226" height="437" rx="6" class="room room-off" fill-opacity="0.35" stroke-width="2"/><rect id="room-bedroom" x="39" y="519" width="525" height="243" rx="6" class="room room-off" fill-opacity="0.35" stroke-width="2"/><rect id="room-playroom" x="125" y="693" width="343" height="192" rx="6" class="room room-off" fill-opacity="0.35" stroke-width="2"/><rect id="room-bath1" x="646" y="381" width="184" height="234" rx="6" class="room room-off" fill-opacity="0.35" stroke-width="2"/><rect id="room-bath2" x="660" y="647" width="206" height="132" rx="6" class="room room-off" fill-opacity="0.35" stroke-width="2"/><rect id="room-hall" x="506" y="662" width="127" height="132" rx="6" class="room room-off" fill-opacity="0.35" stroke-width="2"/><rect id="room-storage" x="870" y="484" width="198" height="346" rx="6" class="room room-off" fill-opacity="0.35" stroke-width="2"/><rect id="room-entrance" x="588" y="924" width="488" height="344" rx="6" class="room room-off" fill-opacity="0.35" stroke-width="2"/><circle id="light-salon-l1" cx="565" cy="1050" r="13" class="light light-off" stroke-width="2"/><circle id="light-salon-l1-bulb" cx="565" cy="1050" r="6" fill="#fff" pointer-events="none"/><circle id="light-salon-l2" cx="235" cy="1257" r="13" class="light light-off" stroke-width="2"/><circle id="light-salon-l2-bulb" cx="235" cy="1257" r="6" fill="#fff" pointer-events="none"/><circle id="light-tv-l1" cx="263" cy="950" r="13" class="light light-off" stroke-width="2"/><circle id="light-tv-l1-bulb" cx="263" cy="950" r="6" fill="#fff" pointer-events="none"/><circle id="light-tv-l2" cx="222" cy="970" r="13" class="light light-off" stroke-width="2"/><circle id="light-tv-l2-bulb" cx="222" cy="970" r="6" fill="#fff" pointer-events="none"/><circle id="light-giris-dolap-ayna-l1" cx="740" cy="980" r="13" class="light light-off" stroke-width="2"/><circle id="light-giris-dolap-ayna-l1-bulb" cx="740" cy="980" r="6" fill="#fff" pointer-events="none"/><circle id="light-giris-dolap-ayna-l2" cx="835" cy="1105" r="13" class="light light-off" stroke-width="2"/><circle id="light-giris-dolap-ayna-l2-bulb" cx="835" cy="1105" r="6" fill="#fff" pointer-events="none"/><circle id="light-giris-sanat-sokak-l1" cx="1090" cy="930" r="13" class="light light-off" stroke-width="2"/><circle id="light-giris-sanat-sokak-l1-bulb" cx="1090" cy="930" r="6" fill="#fff" pointer-events="none"/><circle id="light-giris-sanat-sokak-l2" cx="985" cy="980" r="13" class="light light-off" stroke-width="2"/><circle id="light-giris-sanat-sokak-l2-bulb" cx="985" cy="980" r="6" fill="#fff" pointer-events="none"/><polygon id="cover-panjorno-1-up" points="188,1237 212,1237 200,1217" class="cover-up" stroke-width="1"/><circle id="cover-panjorno-1-dot" cx="200" cy="1257" r="9" class="cover cover-closed" stroke-width="2"/><polygon id="cover-panjorno-1-down" points="188,1277 212,1277 200,1297" class="cover-down" stroke-width="1"/><polygon id="cover-panjur-2-sol-up" points="188,1380 212,1380 200,1360" class="cover-up" stroke-width="1"/><circle id="cover-panjur-2-sol-dot" cx="200" cy="1400" r="9" class="cover cover-closed" stroke-width="2"/><polygon id="cover-panjur-2-sol-down" points="188,1420 212,1420 200,1440" class="cover-down" stroke-width="1"/><polygon id="cover-panjur-tv-up" points="188,950 212,950 200,930" class="cover-up" stroke-width="1"/><circle id="cover-panjur-tv-dot" cx="200" cy="970" r="9" class="cover cover-closed" stroke-width="2"/><polygon id="cover-panjur-tv-down" points="188,990 212,990 200,1010" class="cover-down" stroke-width="1"/><circle id="door-sokak-kapisi" cx="915" cy="1420" r="12" class="door door-closed" stroke-width="2"/><text id="temp-humidity-text" x="500" y="945" font-size="20" font-family="Roboto, sans-serif" class="sensor-text" text-anchor="middle">--</text><circle id="ac-salon-icon" cx="625" cy="1050" r="20" class="ac-icon" stroke-width="2"/><text x="625" y="1056" font-size="16" text-anchor="middle" pointer-events="none" class="ac-icon-label">AC</text><circle id="ac-leyla-icon" cx="465" cy="755" r="20" class="ac-icon" stroke-width="2"/><text x="465" y="761" font-size="16" text-anchor="middle" pointer-events="none" class="ac-icon-label">AC</text><rect id="camera-leyla-icon" x="390" y="600" width="36" height="26" rx="4" class="camera-icon"/><circle id="camera-leyla-lens" cx="408" cy="613" r="8" class="camera-lens-ring"/><circle cx="408" cy="613" r="4" fill="#fff" pointer-events="none"/><circle id="plug-kartel" cx="163" cy="1140" r="13" class="light light-off" stroke-width="2"/><circle id="plug-kartel-bulb" cx="163" cy="1140" r="6" fill="#fff" pointer-events="none"/><text x="163" y="1165" font-size="11" text-anchor="middle" pointer-events="none" class="sensor-text">Priz</text></g></svg>